<svg xmlns="http://www.w3.org/2000/svg" viewBox="0 0 250 250"><defs><style>.cls-1{fill:#5b5b5b;}.cls-2{fill:#7f7f7f;}.cls-3{fill:#ffec5f;}.cls-4{fill:#a98c48;}.cls-5,.cls-8{fill:#68836a;}.cls-6{fill:#aa8d49;stroke:#aa8d49;}.cls-7{fill:none;}.cls-10,.cls-7{stroke:#fff;}.cls-8{font-size:11px;font-family:ArialMT, Arial;}.cls-9{fill:#a88b49;}.cls-10,.cls-11{fill:#fff;}</style></defs><title>14</title><g id="TOR_-_14" data-name="TOR - 14"><g id="Compass_copy_9" data-name="Compass copy 9"><g id="Compass"><polygon class="cls-1" points="226.89 208.46 225.39 199.42 226.97 191.57 228.64 199.41 226.89 208.46"/><path class="cls-2" d="M227.06,215a15.51,15.51,0,1,1,15.47-15.55A15.52,15.52,0,0,1,227.06,215ZM227,185.33a14.19,14.19,0,1,0,14.22,14.15A14.2,14.2,0,0,0,227,185.33Z"/><circle class="cls-1" cx="227.02" cy="199.52" r="2.97" transform="translate(-74.54 219.76) rotate(-45.15)"/><path class="cls-1" d="M225.78,190.25v-3.08h.47l1.41,2.12h0v-2.12h.52v3.08h-.47l-1.42-2.13h0v2.13Z"/><circle class="cls-3" cx="227.02" cy="199.52" r="1.65" transform="translate(-74.54 219.77) rotate(-45.15)"/></g></g><path class="cls-4" d="M213.83,119.44c1.87-7.84,6.12-13,6-13.47-10.92-32.75-46-75.06-95.08-75.06S39.44,71.11,27.82,106c-.11.32,2.9,5.21,4,10.22,4,18.2,13.14,59.32,30,81.28l-2.75,5.94L87.87,226l6.7-4.53s17.25,4.53,31.73,4c15.27-.56,34-5.43,34-5.43l7.75,6,22-24.08-4.25-4.42C201.29,177.32,209,139.58,213.83,119.44Z"/><path class="cls-5" d="M209.94,119.94c1.72-7.24,4-12,3.88-12.44-10.24-30.71-45.48-72-88.66-72s-80.46,39.29-91.35,72c-.1.31,1.94,3.1,3,7.94,3.8,17.21,13.14,57.36,28.87,77.85,21.07,27.43,27.19,25.78,57.19,26.72v-.25h1.87V220c30-.94,36.12.71,57.19-26.72C196.5,174.32,205.46,138.77,209.94,119.94Z"/><g id="Grass_Sand_2_TOR_" data-name="Grass Sand 2 (TOR)"><path class="cls-6" d="M101.72,170l-6.08,6.08,6.09,6.09A8.61,8.61,0,0,0,101.72,170Z"/><path class="cls-6" d="M148.63,182.16l6.08-6.08L148.63,170A8.61,8.61,0,0,0,148.63,182.16Z"/><path class="cls-6" d="M131.25,152.62l-6.08-6.08-6.09,6.09A8.61,8.61,0,0,0,131.25,152.62Z"/><circle class="cls-6" cx="125.16" cy="203.41" r="5.59"/><rect class="cls-7" x="105.79" y="156.71" width="38.74" height="38.74" transform="translate(-87.85 140.07) rotate(-45)"/><path class="cls-7" d="M164,164.63a40.9,40.9,0,0,0-77.69,0"/></g><text class="cls-8" transform="translate(6.6 98.66)">328</text><text class="cls-8" transform="translate(222.06 98.66)">328</text><text class="cls-8" transform="translate(183.75 46.95)">375</text><text class="cls-8" transform="translate(116.14 27.08)">400</text><text class="cls-8" transform="translate(45.81 47.18)">375</text></g><g id="Pitchers_mound" data-name="Pitchers mound"><circle class="cls-9" cx="125.25" cy="177.46" r="3.83" transform="translate(-88.8 140.54) rotate(-45)"/></g><g id="Bases_and_chalk_lines-ALL" data-name="Bases and chalk lines-ALL"><rect class="cls-10" x="123.17" y="176.68" width="3.98" height="1.55"/><rect class="cls-10" x="98.41" y="174.55" width="3.04" height="3.04" transform="translate(-95.22 122.19) rotate(-44.99)"/><rect class="cls-10" x="148.89" y="174.55" width="3.04" height="3.04" transform="translate(-80.45 157.87) rotate(-44.99)"/><rect class="cls-10" x="123.65" y="149.32" width="3.04" height="3.04" transform="translate(-70 132.73) rotate(-45.01)"/><polygon class="cls-10" points="126.7 201.88 125.16 203.41 123.65 201.88 123.65 200.36 126.7 200.36 126.7 201.88"/><polygon class="cls-11" points="125.18 204.53 124.65 204 28.71 108.02 27.74 106.05 28.06 105.25 125.18 202.41 217.31 110.42 215.45 114.4 125.18 204.53"/></g></svg>